#!OML:ASF H:\Not Pregnant\Project 1\Capture day 1\Session 1\non-pregnant.ASF
:FULLY-SPECIFIED
:DEGREES
2429
root 7.67892 14.9592 30.8836 75.3837 -75.1277 -65.0694
lowerback -0.780166 1.49368 5.43968
upperback -8.7104 2.04094 1.12234
thorax -8.58994 0.536831 -1.96425
lowerneck 12.5409 -8.83358 -30.0829
upperneck 3.18231 -19.6396 38.8875
head 6.47901 -11.6142 18.8951
rclavicle -7.95139e-015 -1.59028e-015
rhumerus -45.9683 -0.636931 -71.7386
rradius 35.2367
rwrist 23.1327
rhand 3.26593 3.69838
rfingers 7.12502
rthumb 28.7146 -24.1141
lclavicle -7.95139e-015 -1.59028e-015
lhumerus -50.0136 -0.590816 60.2687
lradius 41.6702
lwrist 30.7083
lhand -5.01729 -8.39264
lfingers 7.12502
lthumb 20.7768 20.515
rfemur -18.194 -15.8477 20.6424
rtibia 32.4883
rfoot -11.1484 -14.8853
rtoes -30.1784
lfemur -23.5917 11.0998 16.4299
ltibia 24.38
lfoot -15.9926 28.7501
ltoes 16.9058
2430
root 7.66924 14.9523 30.888 75.2047 -74.9764 -64.9338
lowerback -0.873131 1.51992 5.56131
upperback -8.75266 2.07896 1.2426
thorax -8.58138 0.549133 -1.90446
lowerneck 12.5651 -8.85601 -30.0578
upperneck 3.10564 -19.6475 38.8649
head 6.4478 -11.6151 18.8687
rclavicle 4.19436e-014 -2.8625e-014
rhumerus -45.9721 -0.49725 -70.9907
rradius 35.2909
rwrist 23.4248
rhand 3.74727 3.75697
rfingers 7.12502
rthumb 29.1744 -23.9767
lclavicle 4.19436e-014 -2.8625e-014
lhumerus -50.1376 -0.22732 60.032
lradius 41.3802
lwrist 30.4497
lhand -4.66692 -8.45104
lfingers 7.12502
lthumb 21.1134 20.4194
rfemur -18.0592 -15.5445 20.6169
rtibia 32.5418
rfoot -11.0283 -14.793
rtoes -30.869
lfemur -23.317 9.44621 16.7102
ltibia 24.0249
lfoot -18.3344 29.7689
ltoes 20.2202
2431
root 7.66055 14.9423 30.8948 75.0728 -74.8577 -64.8528
lowerback -0.946204 1.54202 5.66425
upperback -8.79144 2.11212 1.36455
thorax -8.58157 0.56039 -1.83262
lowerneck 12.5571 -8.87755 -30.0484
upperneck 3.04502 -19.6504 38.836
head 6.42642 -11.6103 18.8414
rclavicle 2.14687e-014 1.59028e-015
rhumerus -45.942 -0.384797 -70.2009
rradius 35.3371
rwrist 23.6986
rhand 4.14421 3.81524
rfingers 7.12502
rthumb 29.5534 -23.852
lclavicle 2.14687e-014 1.59028e-015
lhumerus -50.2687 0.139595 59.7632
lradius 41.098
lwrist 30.254
lhand -4.39122 -8.49393
lfingers 7.12502
lthumb 21.3782 20.3467
rfemur -17.9014 -15.1509 20.4947
rtibia 32.601
rfoot -10.9993 -14.5857
rtoes -31.5743
lfemur -22.988 7.84607 17.0038
ltibia 23.6425
lfoot -20.3068 30.5822
ltoes 22.5709
2432
root 7.6527 14.929 30.9034 74.9931 -74.7649 -64.828
lowerback -1.00474 1.56456 5.75684
upperback -8.82587 2.14628 1.48209
thorax -8.58559 0.572809 -1.76004
lowerneck 12.522 -8.90329 -30.0355
upperneck 2.98862 -19.6518 38.8033
head 6.40977 -11.6015 18.8089
rclavicle 1.55052e-014 -1.74931e-014
rhumerus -45.8823 -0.327989 -69.3664
rradius 35.3816
rwrist 23.9569
rhand 4.46622 3.86298
rfingers 7.12502
rthumb 29.8607 -23.7494
lclavicle 1.55052e-014 -1.74931e-014
lhumerus -50.3883 0.503777 59.4503
lradius 40.82
lwrist 30.1184
lhand -4.17138 -8.51721
lfingers 7.12502
lthumb 21.5894 20.2993
rfemur -17.7046 -14.6728 20.2819
rtibia 32.6354
rfoot -11.0896 -14.2488
rtoes -32.2922
lfemur -22.6318 6.43605 17.2819
ltibia 23.2516
lfoot -21.7098 31.252
ltoes 23.8774
2433
root 7.64522 14.9128 30.9119 74.9613 -74.6739 -64.8578
lowerback -1.04557 1.58701 5.83558
upperback -8.85754 2.18143 1.60344
thorax -8.59745 0.586817 -1.67619
lowerneck 12.4699 -8.93212 -30.0085
upperneck 2.93207 -19.6524 38.7746
head 6.39499 -11.5909 18.7742
rclavicle -3.18055e-015 3.02153e-014
rhumerus -45.803 -0.318675 -68.5055
rradius 35.4265
rwrist 24.1683
rhand 4.70217 3.90624
rfingers 7.12502
rthumb 30.0859 -23.6654
lclavicle -3.18055e-015 3.02153e-014
lhumerus -50.4941 0.818443 59.1133
lradius 40.5557
lwrist 30.0525
lhand -4.05901 -8.50703
lfingers 7.12502
lthumb 21.6973 20.2971
rfemur -17.448 -14.1227 20.0124
rtibia 32.6135
rfoot -11.3154 -13.7807
rtoes -32.9827
lfemur -22.2781 5.37677 17.5317
ltibia 22.8711
lfoot -22.2218 31.9403
ltoes 23.7585
2434
root 7.63799 14.8947 30.9196 75.0067 -74.5649 -64.9694
lowerback -1.07339 1.61167 5.92153
upperback -8.88426 2.22133 1.73431
thorax -8.61154 0.603093 -1.58679
lowerneck 12.4039 -8.96563 -29.9756
upperneck 2.86454 -19.6531 38.752
head 6.3802 -11.5793 18.7394
rclavicle -7.55382e-015 1.27222e-014
rhumerus -45.7043 -0.356922 -67.6282
rradius 35.4815
rwrist 24.3062
rhand 4.82355 3.88932
rfingers 7.12502
rthumb 30.2017 -23.6613
lclavicle -7.55382e-015 1.27222e-014
lhumerus -50.5715 1.0899 58.7546
lradius 40.2951
lwrist 30.0823
lhand -4.03636 -8.46894
lfingers 7.12502
lthumb 21.719 20.3327
rfemur -17.1247 -13.4994 19.7197
rtibia 32.5073
rfoot -11.6631 -13.1878
rtoes -33.6246
lfemur -21.944 4.6861 17.7655
ltibia 22.5137
lfoot -21.955 32.6703
ltoes 22.5034
2435
root 7.63079 14.8768 30.9259 75.0827 -74.4379 -65.1075
lowerback -1.09255 1.63851 6.00932
upperback -8.90984 2.26507 1.86793
thorax -8.62943 0.621149 -1.49587
lowerneck 12.3352 -9.00457 -29.9249
upperneck 2.77654 -19.6543 38.7376
head 6.35939 -11.5678 18.7035
rclavicle 1.78906e-015 -1.90833e-014
rhumerus -45.5914 -0.477516 -66.7124
rradius 35.5402
rwrist 24.4107
rhand 4.88785 3.89042
rfingers 7.12502
rthumb 30.263 -23.6489
lclavicle 1.78906e-015 -1.90833e-014
lhumerus -50.6053 1.31543 58.3672
lradius 40.0232
lwrist 30.1509
lhand -4.08775 -8.41829
lfingers 7.12502
lthumb 21.6697 20.389
rfemur -16.7382 -12.8354 19.4101
rtibia 32.2947
rfoot -12.1158 -12.4447
rtoes -34.1837
lfemur -21.6636 4.361 17.9666
ltibia 22.1931
lfoot -20.8203 33.5211
ltoes 19.9075
2436
root 7.62329 14.8618 30.9306 75.0762 -74.3232 -65.1596
lowerback -1.10345 1.65537 6.06277
upperback -8.9319 2.29487 1.99966
thorax -8.65008 0.634982 -1.38729
lowerneck 12.259 -9.0437 -29.8751
upperneck 2.67399 -19.6503 38.7303
head 6.33516 -11.5535 18.6713
rclavicle -1.47101e-014 -4.05521e-014
rhumerus -45.4606 -0.671979 -65.7656
rradius 35.6056
rwrist 24.4821
rhand 4.89358 3.87865
rfingers 7.12502
rthumb 30.2685 -23.6597
lclavicle -1.47101e-014 -4.05521e-014
lhumerus -50.6047 1.51173 57.9593
lradius 39.7413
lwrist 30.2476
lhand -4.24227 -8.36788
lfingers 7.12502
lthumb 21.5213 20.4565
rfemur -16.2814 -12.1647 19.0488
rtibia 31.9601
rfoot -12.6242 -11.5419
rtoes -34.6903
lfemur -21.4545 4.2807 18.1018
ltibia 21.9241
lfoot -19.2675 34.3295
ltoes 16.8347
2437
root 7.61611 14.8507 30.934 74.971 -74.2144 -65.0946
lowerback -1.10909 1.6599 6.1004
upperback -8.9586 2.30767 2.12452
thorax -8.68033 0.640958 -1.27633
lowerneck 12.1777 -9.07662 -29.8396
upperneck 2.56608 -19.6392 38.7383
head 6.31204 -11.5369 18.6526
rclavicle -2.98177e-015 -3.57812e-014
rhumerus -45.3141 -0.9792 -64.772
rradius 35.6642
rwrist 24.5763
rhand 4.84666 3.89078
rfingers 7.12502
rthumb 30.2237 -23.6557
lclavicle -2.98177e-015 -3.57812e-014
lhumerus -50.5695 1.68233 57.5268
lradius 39.4391
lwrist 30.3556
lhand -4.48923 -8.33071
lfingers 7.12502
lthumb 21.2841 20.5206
rfemur -15.7754 -11.4702 18.6482
rtibia 31.499
rfoot -13.1458 -10.5108
rtoes -35.1934
lfemur -21.3468 4.37158 18.1806
ltibia 21.7213
lfoot -17.5242 35.0418
ltoes 13.6855
2438
root 7.60988 14.8435 30.9361 74.7278 -74.1101 -64.8678
lowerback -1.10695 1.65751 6.1353
upperback -8.99265 2.31059 2.22066
thorax -8.72289 0.640682 -1.19382
lowerneck 12.1039 -9.11139 -29.7792
upperneck 2.43978 -19.6286 38.7651
head 6.28265 -11.5227 18.6387
rclavicle 5.46658e-015 -1.66979e-014
rhumerus -45.1759 -1.46487 -63.7318
rradius 35.7122
rwrist 24.7257
rhand 4.74537 3.9275
rfingers 7.12502
rthumb 30.1271 -23.6367
lclavicle 5.46658e-015 -1.66979e-014
lhumerus -50.4692 1.79875 57.058
lradius 39.1078
lwrist 30.4695
lhand -4.82656 -8.30865
lfingers 7.12502
lthumb 20.96 20.5789
rfemur -15.2348 -10.7725 18.2129
rtibia 30.9167
rfoot -13.6573 -9.36761
rtoes -35.6891
lfemur -21.3561 4.56397 18.2086
ltibia 21.5959
lfoot -15.6696 35.648
ltoes 10.5695
2439
root 7.60505 14.8394 30.9367 74.3377 -74.0052 -64.4707
lowerback -1.09364 1.64285 6.15992
upperback -9.03439 2.29728 2.30344
thorax -8.78135 0.632078 -1.11901
lowerneck 12.0311 -9.14429 -29.7263
upperneck 2.30422 -19.6165 38.8051
head 6.25318 -11.5092 18.6342
rclavicle 2.0773e-014 -3.18055e-015
rhumerus -45.0447 -2.10041 -62.6447
rradius 35.7451
rwrist 24.9158
rhand 4.56131 3.97081
rfingers 7.12502
rthumb 29.9515 -23.6252
lclavicle 2.0773e-014 -3.18055e-015
lhumerus -50.3186 1.89251 56.5627
lradius 38.746
lwrist 30.5971
lhand -5.24736 -8.30079
lfingers 7.12502
lthumb 20.5557 20.6309
rfemur -14.6729 -10.0893 17.7576
rtibia 30.2293
rfoot -14.142 -8.14626
rtoes -36.2079
lfemur -21.4869 4.84181 18.1922
ltibia 21.5577
lfoot -13.6629 36.131
ltoes 7.39106
2440
root 7.60213 14.8371 30.9357 73.8078 -73.8957 -63.9098
lowerback -1.06604 1.61427 6.18195
upperback -9.08526 2.26603 2.37122
thorax -8.85902 0.613528 -1.05779
lowerneck 11.9569 -9.1741 -29.6827
upperneck 2.16481 -19.6018 38.8563
head 6.22518 -11.4956 18.6388
rclavicle 3.22031e-014 -2.38542e-015
rhumerus -44.9298 -2.87306 -61.5259
rradius 35.7653
rwrist 25.12
rhand 4.2646 3.97808
rfingers 7.12502
rthumb 29.6683 -23.6687
lclavicle 3.22031e-014 -2.38542e-015
lhumerus -50.124 1.98109 56.0295
lradius 38.3564
lwrist 30.736
lhand -5.73763 -8.29675
lfingers 7.12502
lthumb 20.0846 20.6851
rfemur -14.1092 -9.43609 17.2965
rtibia 29.4642
rfoot -14.5944 -6.88335
rtoes -36.7303
lfemur -21.7325 5.16545 18.1444
ltibia 21.6041
lfoot -11.524 36.4732
ltoes 4.11506
2441
root 7.60108 14.8359 30.9328 73.1369 -73.7965 -63.1854
lowerback -1.03016 1.57139 6.17525
upperback -9.13983 2.21511 2.42936
thorax -8.94716 0.586902 -0.989732
lowerneck 11.875 -9.2019 -29.6597
upperneck 2.01806 -19.5824 38.9122
head 6.19828 -11.4796 18.6506
rclavicle -1.68967e-015 1.90833e-014
rhumerus -44.8332 -3.77707 -60.3709
rradius 35.775
rwrist 25.3295
rhand 3.84715 3.95546
rfingers 7.12502
rthumb 29.2698 -23.7616
lclavicle -1.68967e-015 1.90833e-014
lhumerus -49.8871 2.09059 55.4577
lradius 37.9392
lwrist 30.8844
lhand -6.27666 -8.29394
lfingers 7.12502
lthumb 19.5664 20.7415
rfemur -13.5612 -8.8268 16.8229
rtibia 28.6573
rfoot -15.0152 -5.6127
rtoes -37.1963
lfemur -22.0768 5.54169 18.0462
ltibia 21.7218
lfoot -9.30244 36.6356
ltoes 0.840018
2442
root 7.60182 14.8351 30.928 72.3536 -73.7194 -62.3313
lowerback -0.987023 1.51811 6.13039
upperback -9.19327 2.14904 2.47381
thorax -9.0394 0.555464 -0.91418
lowerneck 11.7848 -9.22882 -29.6545
upperneck 1.85854 -19.5575 38.973
head 6.17042 -11.4607 18.6687
rclavicle 4.17448e-015 -2.94201e-014
rhumerus -44.7735 -4.78218 -59.2192
rradius 35.792
rwrist 25.4826
rhand 3.23989 3.82685
rfingers 7.12502
rthumb 28.6898 -23.9898
lclavicle 4.17448e-015 -2.94201e-014
lhumerus -49.6128 2.22088 54.8514
lradius 37.514
lwrist 31.0741
lhand -6.86861 -8.27984
lfingers 7.12502
lthumb 18.9972 20.8124
rfemur -13.0452 -8.25926 16.3345
rtibia 27.8464
rfoot -15.4061 -4.36376
rtoes -37.5628
lfemur -22.4894 5.93692 17.8954
ltibia 21.8882
lfoot -7.14777 36.6251
ltoes -2.19545
